<?xml version="1.0" encoding="UTF-8" standalone="no"?>
<svg width="20px" height="20px" viewBox="0 0 20 20" version="1.1" xmlns="http://www.w3.org/2000/svg" xmlns:xlink="http://www.w3.org/1999/xlink">
    <!-- Generator: Sketch 39.1 (31720) - http://www.bohemiancoding.com/sketch -->
    <title>Slice 1</title>
    <desc>Created with Sketch.</desc>
    <defs></defs>
    <g id="Page-1" stroke="none" stroke-width="1" fill="none" fill-rule="evenodd">
        <path d="M10,18 C5.589,18 2,14.411 2,10 C2,5.589 5.589,2 10,2 C14.411,2 18,5.589 18,10 C18,14.411 14.411,18 10,18 M10,0 C4.486,0 0,4.486 0,10 C0,15.515 4.486,20 10,20 C15.514,20 20,15.515 20,10 C20,4.486 15.514,0 10,0" id="Fill-440" fill="#872A29"></path>
        <polygon id="Fill-441" fill="#9D2831" points="12.293 6.293 10 8.586 7.707 6.293 6.293 7.707 8.586 10 6.293 12.293 7.707 13.707 10 11.414 12.293 13.707 13.707 12.293 11.414 10 13.707 7.707"></polygon>
    </g>
</svg>